<svg id="Layer_1" data-name="Layer 1" xmlns="http://www.w3.org/2000/svg" viewBox="0 0 420.06 111.65"><defs><style>.cls-1{fill:#f063a5;}.cls-2{fill:#414142;}</style></defs><title>picary-outline</title><path class="cls-1" d="M100,27c0-1.36-.23-2.7-0.09-4.06a13.22,13.22,0,0,1,5.56-9.77c5-3.64,10.43-4.27,16-1.43a11.62,11.62,0,0,1,6.64,10c0.39,5.53-2.15,9.63-6.67,12.59a14.85,14.85,0,0,1-8.17,2.34,13,13,0,0,1-2.2-.2,12.55,12.55,0,0,0-6.93,1,15.07,15.07,0,0,0-9.55,11.47,12.8,12.8,0,0,0,.52,7c2.31,6.42,1.06,12.29-3,17.65a15.1,15.1,0,0,1-1.59,1.8,13.17,13.17,0,0,0-4,8.72A16,16,0,0,0,91.4,97.35,16.3,16.3,0,0,0,98,101.06a9.31,9.31,0,0,1,4.52,15.07,13.93,13.93,0,0,1-10.19,5.46,11.82,11.82,0,0,1-8.39-2.16,9,9,0,0,1-2.49-12c0.3-.53.64-1,1-1.54A15,15,0,0,0,84.07,91a14.54,14.54,0,0,0-10.23-9.3c-1.77-.46-3.62-0.59-5.36-1.23a17.92,17.92,0,0,1-11.21-11,12.58,12.58,0,0,0-3.66-4.94A25.64,25.64,0,0,0,39.24,58.4a23.81,23.81,0,0,0-12.3,1.54,21.34,21.34,0,0,0-2,1.15c-3.67,2-7.38,2.22-11-.06a8.46,8.46,0,0,1-3-10.93A10.49,10.49,0,0,1,26,45.93a8.88,8.88,0,0,1,2.09,2,18.33,18.33,0,0,0,6.19,5,27.36,27.36,0,0,0,15.09,3.25,19,19,0,0,0,10.66-3.74,18.33,18.33,0,0,0,1.72-1.68,21.45,21.45,0,0,1,14.31-6.5,37,37,0,0,1,5.17.2,16.83,16.83,0,0,0,11.41-3.17A16.91,16.91,0,0,0,100,27Z" transform="translate(-10 -10)"/><path class="cls-1" d="M190.08,62.32c0,12.78-8,20.23-22,20.23H155.28V99.62h-9.37V43h22.16C182.05,43,190.08,50,190.08,62.32Zm-9,.24c0-7.44-4.85-11-13.42-11H155.28V74h12.39C176.26,74,181.1,70.25,181.1,62.57Z" transform="translate(-10 -10)"/><path class="cls-1" d="M207.16,43V99.62h-9.37V43h9.37Z" transform="translate(-10 -10)"/><path class="cls-1" d="M245,51.24a19.94,19.94,0,0,0,0,39.88,22.78,22.78,0,0,0,15.49-6.71L266,90.72a31.29,31.29,0,0,1-21.53,9.3,28.44,28.44,0,0,1-28.92-28.8c0-16.1,12.79-28.48,29.23-28.48a30.4,30.4,0,0,1,21.13,8.74l-5.48,7A21.55,21.55,0,0,0,245,51.24Z" transform="translate(-10 -10)"/><path class="cls-2" d="M309.87,86.84h-28l-5.32,12.78h-9.77L291.28,43h9.61L325.2,99.62h-10Zm-3.57-8.5L295.81,53.18,285.32,78.34h21Z" transform="translate(-10 -10)"/><path class="cls-2" d="M366.27,99.62L356.1,82.47c-0.79.08-1.67,0.08-2.54,0.08H340.37V99.62H331V43h22.56c14.22,0,22.4,7,22.4,19.34,0,9.06-4.13,15.45-11.52,18.37l12.47,18.93H366.27ZM353.56,74c8.58,0,13.5-3.72,13.5-11.41,0-7.44-4.93-11-13.5-11H340.37V74h13.19Z" transform="translate(-10 -10)"/><path class="cls-2" d="M409.64,80.77V99.62h-9.29V81.09L379.61,43h9.45L405,70.57,420.53,43h9.53Z" transform="translate(-10 -10)"/></svg>